<svg width="25" height="24" viewBox="0 0 25 24" fill="none" xmlns="http://www.w3.org/2000/svg">
<path d="M11.1001 4H4.1001C3.56966 4 3.06096 4.21071 2.68588 4.58579C2.31081 4.96086 2.1001 5.46957 2.1001 6V20C2.1001 20.5304 2.31081 21.0391 2.68588 21.4142C3.06096 21.7893 3.56966 22 4.1001 22H18.1001C18.6305 22 19.1392 21.7893 19.5143 21.4142C19.8894 21.0391 20.1001 20.5304 20.1001 20V13" stroke="black" stroke-width="2" stroke-linecap="round" stroke-linejoin="round"/>
<path d="M18.6001 2.49998C18.9979 2.10216 19.5375 1.87866 20.1001 1.87866C20.6627 1.87866 21.2023 2.10216 21.6001 2.49998C21.9979 2.89781 22.2214 3.43737 22.2214 3.99998C22.2214 4.56259 21.9979 5.10216 21.6001 5.49998L12.1001 15L8.1001 16L9.1001 12L18.6001 2.49998Z" stroke="#005AE2" stroke-width="2" stroke-linecap="round" stroke-linejoin="round"/>
</svg>
