<svg width="25" height="24" viewBox="0 0 25 24" fill="none" xmlns="http://www.w3.org/2000/svg">
<g clip-path="url(#clip0_1982_909)">
<path d="M15.1001 7H18.1001C18.7567 7 19.4069 7.12933 20.0135 7.3806C20.6201 7.63188 21.1713 8.00017 21.6356 8.46447C22.0999 8.92876 22.4682 9.47996 22.7195 10.0866C22.9708 10.6932 23.1001 11.3434 23.1001 12C23.1001 12.6566 22.9708 13.3068 22.7195 13.9134C22.4682 14.52 22.0999 15.0712 21.6356 15.5355C21.1713 15.9998 20.6201 16.3681 20.0135 16.6194C19.4069 16.8707 18.7567 17 18.1001 17H15.1001M9.1001 17H6.1001C5.44349 17 4.79331 16.8707 4.18668 16.6194C3.58005 16.3681 3.02886 15.9998 2.56456 15.5355C1.62688 14.5979 1.1001 13.3261 1.1001 12C1.1001 10.6739 1.62688 9.40215 2.56456 8.46447C3.50225 7.52678 4.77402 7 6.1001 7H9.1001" stroke="#141414" stroke-width="2" stroke-linecap="round" stroke-linejoin="round"/>
<path d="M8.1001 12H16.1001" stroke="#005AE2" stroke-width="2" stroke-linecap="round" stroke-linejoin="round"/>
</g>
<defs>
<clipPath id="clip0_1982_909">
<rect width="24" height="24" fill="white" transform="translate(0.100098)"/>
</clipPath>
</defs>
</svg>
