<svg width="926" height="523" viewBox="0 0 926 523" fill="none" xmlns="http://www.w3.org/2000/svg">
<g opacity="0.7">
<path fill-rule="evenodd" clip-rule="evenodd" d="M413.5 885.504C423.766 758.506 503.045 505.091 545.905 409.451C585.736 320.572 606.063 286.553 663.5 255.009C718.591 224.755 804.248 266.193 861 279.105C933.73 295.652 1037.64 199.727 1074.88 326.258C1113.19 456.419 1039.85 608.999 1018.8 754.157C1004.8 850.651 994.171 942.658 972.353 1033.11C945.203 1145.66 935.469 1304.47 876.435 1344.32C817.484 1384.11 767.688 1236.75 706.683 1212.44C631.599 1182.54 538.141 1294.21 483.002 1187.6C429.602 1084.35 401.623 1032.44 413.5 885.504Z" fill="url(#paint0_linear_3110_799)" fill-opacity="0.3"/>
<path fill-rule="evenodd" clip-rule="evenodd" d="M525.135 937.809C526.366 824.743 539.737 713.788 571.246 620.045C600.527 532.927 645.799 477.254 693.885 435.743C740.008 395.926 779.814 438.388 830.001 435.743C894.318 432.355 986.588 317.17 1026.68 418.209C1067.93 522.147 1013.35 672.911 1003.83 804.427C997.499 891.85 993.827 974.548 980.321 1058.63C963.517 1163.24 964.68 1303.87 915.708 1353.01C866.804 1402.07 814.512 1285.97 759.931 1279.74C692.754 1272.07 618.173 1392.15 563.703 1312.83C510.953 1236.01 523.711 1068.63 525.135 937.809Z" fill="url(#paint1_linear_3110_799)" fill-opacity="0.4"/>
<path fill-rule="evenodd" clip-rule="evenodd" d="M624.126 919.302C639.454 815.639 665.715 720.071 706.543 649.557C744.485 584.029 793.23 555.593 842.792 541.644C890.329 528.265 935.844 548.936 982.464 571.897C1042.21 601.325 1127.64 580.426 1151.94 693.909C1176.93 810.646 1107.67 922.076 1082.38 1038.56C1065.56 1115.98 1051.8 1190.4 1028.79 1261.11C1000.15 1349.09 983.573 1479.39 932.238 1499.92C880.973 1520.42 847.319 1386.87 797.76 1353.5C736.764 1312.43 652.903 1385.44 612.622 1284.71C573.612 1187.16 606.391 1039.23 624.126 919.302Z" fill="url(#paint2_linear_3110_799)" fill-opacity="0.6"/>
</g>
<defs>
<linearGradient id="paint0_linear_3110_799" x1="984.675" y1="1193.08" x2="432.248" y2="1068.96" gradientUnits="userSpaceOnUse">
<stop stop-color="#9EE6F7" stop-opacity="0"/>
<stop offset="1" stop-color="#9EE6F7" stop-opacity="0.46"/>
</linearGradient>
<linearGradient id="paint1_linear_3110_799" x1="996.685" y1="1222.43" x2="522.283" y2="1153.28" gradientUnits="userSpaceOnUse">
<stop stop-color="#9EE6F7" stop-opacity="0"/>
<stop offset="1" stop-color="#9EE6F7" stop-opacity="0.46"/>
</linearGradient>
<linearGradient id="paint2_linear_3110_799" x1="1023.32" y1="1420.47" x2="546.136" y2="1274.28" gradientUnits="userSpaceOnUse">
<stop stop-color="#005AE2"/>
<stop offset="1" stop-color="#73E6FF" stop-opacity="0.38"/>
</linearGradient>
</defs>
</svg>
