<svg width="979" height="523" viewBox="0 0 979 523" fill="none" xmlns="http://www.w3.org/2000/svg">
<g opacity="0.5">
<path fill-rule="evenodd" clip-rule="evenodd" d="M43 516.042C-13.417 455.046 -91.4972 556.354 -122.5 443.756C-151.311 339.118 -160.612 119.83 -156.682 0.5236C-152.913 -113.909 -129.881 -215.35 -105.252 -318.824C-73.6885 -451.43 -65.0909 -656.313 6.63529 -685.615C80.4193 -715.758 128.261 -526.723 189.698 -439.318C230.539 -381.215 270.367 -330.964 305.807 -259.991C349.903 -171.681 421.468 -101.295 420.927 23.7568C420.385 148.632 334.746 194.955 303.367 302.775C264.745 435.481 286.756 649.336 218.553 719.117C152.499 786.698 108.273 586.614 43 516.042Z" fill="url(#paint0_linear_3110_803)" fill-opacity="0.3"/>
<path fill-rule="evenodd" clip-rule="evenodd" d="M130 421.669C77.1864 382.372 13.321 385.604 -20.5 295.168C-51.931 211.125 -50.7568 200.52 -54.5752 95.6999C-58.2382 -4.8387 -44.3437 -98.7814 -29.1825 -194.883C-9.75192 -318.04 -14.6996 -498.502 45.9618 -541.557C108.365 -585.848 161.481 -432.993 220.268 -371.936C259.346 -331.346 297.068 -297.345 332.225 -244.232C375.971 -178.145 442.541 -134.379 449.657 -25.3882C456.763 83.4526 385.023 144.729 364.249 246.267C338.681 371.239 370.818 552.021 315.679 629.453C262.279 704.442 191.104 467.134 130 421.669Z" fill="url(#paint1_linear_3110_803)" fill-opacity="0.4"/>
<path fill-rule="evenodd" clip-rule="evenodd" d="M167.5 249.989C123.721 187.016 11.8413 196.908 -8.00014 96.3813C-26.4388 2.961 85.364 24.3163 95 -74.2941C104.243 -168.875 80.9529 -168.022 107 -248.985C140.382 -352.742 181.646 -239.977 243 -248.985C306.114 -258.253 300.736 -480.81 356.14 -444.452C417.702 -404.053 330.381 -178.223 356.14 -111.441C388.19 -28.3453 531.325 -112.856 524.206 -8.72922C517.098 95.2543 443.239 115.46 411.332 198.597C372.062 300.919 379.01 483.922 318.434 527.433C259.769 569.57 218.149 322.85 167.5 249.989Z" fill="url(#paint2_linear_3110_803)" fill-opacity="0.6"/>
</g>
<defs>
<linearGradient id="paint0_linear_3110_803" x1="396.928" y1="-208.542" x2="-205.863" y2="109.336" gradientUnits="userSpaceOnUse">
<stop stop-color="#9EE6F7" stop-opacity="0"/>
<stop offset="1" stop-color="#9EE6F7" stop-opacity="0.46"/>
</linearGradient>
<linearGradient id="paint1_linear_3110_803" x1="414.67" y1="-221.738" x2="-123.642" y2="155.579" gradientUnits="userSpaceOnUse">
<stop stop-color="#9EE6F7" stop-opacity="0"/>
<stop offset="1" stop-color="#9EE6F7" stop-opacity="0.46"/>
</linearGradient>
<linearGradient id="paint2_linear_3110_803" x1="516.586" y1="-207.534" x2="23.8909" y2="-6.55273" gradientUnits="userSpaceOnUse">
<stop stop-color="#005AE2"/>
<stop offset="1" stop-color="#73E6FF" stop-opacity="0.38"/>
</linearGradient>
</defs>
</svg>
