<svg width="17" height="17" viewBox="0 0 17 17" fill="none" xmlns="http://www.w3.org/2000/svg">
<path d="M5.45887 4.31619C5.43991 4.5416 5.11191 4.59859 5.00642 4.39481L4.43834 3.29767C4.4016 3.22658 4.32675 3.17907 4.24209 3.17292L2.93485 3.07809C2.692 3.06049 2.63061 2.75601 2.85016 2.65807L4.03196 2.13074C4.10849 2.09658 4.15977 2.02715 4.16632 1.94854L4.26849 0.73494C4.28745 0.509529 4.61545 0.452535 4.72095 0.656321L5.28902 1.75346C5.32576 1.82455 5.40052 1.87207 5.48527 1.87821L6.79252 1.97303C7.03536 1.99064 7.09675 2.29511 6.8772 2.39306L5.6954 2.92039C5.61878 2.95457 5.56759 3.02397 5.56104 3.10259L5.45887 4.31619Z" fill="white"/>
<path d="M1.70593 5.1442C1.67428 5.25336 1.50743 5.25336 1.47578 5.1442L1.30531 4.55649C1.29429 4.51841 1.26221 4.48867 1.22122 4.47842L0.588148 4.32018C0.470544 4.29079 0.470544 4.13591 0.588148 4.10652L1.22122 3.94828C1.26221 3.93802 1.29429 3.90828 1.30531 3.87021L1.47578 3.28249C1.50743 3.17333 1.67428 3.17333 1.70593 3.28249L1.8764 3.87021C1.88741 3.90828 1.91945 3.93802 1.96049 3.94828L2.59356 4.10652C2.71116 4.13591 2.71116 4.29079 2.59356 4.32018L1.96049 4.47842C1.91945 4.48867 1.88741 4.51841 1.8764 4.55649L1.70593 5.1442Z" fill="white"/>
<path d="M3.88782 8.51993C3.85616 8.6291 3.68931 8.6291 3.65766 8.51993L3.48719 7.93222C3.47618 7.89414 3.4441 7.8644 3.4031 7.85415L2.77003 7.69591C2.65243 7.66652 2.65243 7.51164 2.77003 7.48225L3.4031 7.32401C3.4441 7.31375 3.47618 7.28402 3.48719 7.24594L3.65766 6.65822C3.68931 6.54906 3.85616 6.54906 3.88782 6.65822L4.05829 7.24594C4.0693 7.28402 4.10133 7.31375 4.14238 7.32401L4.77544 7.48225C4.89305 7.51164 4.89305 7.66652 4.77544 7.69591L4.14238 7.85415C4.10133 7.8644 4.0693 7.89414 4.05829 7.93222L3.88782 8.51993Z" fill="white"/>
<path d="M2.03121 7.19688C2.01011 7.26966 1.89887 7.26966 1.87777 7.19688L1.76412 6.80507C1.75678 6.77969 1.7354 6.75986 1.70806 6.75303L1.28602 6.64753C1.20762 6.62794 1.20762 6.52469 1.28602 6.50509L1.70806 6.3996C1.7354 6.39276 1.75678 6.37294 1.76412 6.34755L1.87777 5.95574C1.89887 5.88297 2.01011 5.88297 2.03121 5.95574L2.14486 6.34755C2.1522 6.37294 2.17355 6.39276 2.20092 6.3996L2.62296 6.50509C2.70136 6.52469 2.70136 6.62794 2.62296 6.64753L2.20092 6.75303C2.17355 6.75986 2.1522 6.77969 2.14486 6.80507L2.03121 7.19688Z" fill="white"/>
<path d="M7.12215 5.84654C7.10105 5.91932 6.98982 5.91932 6.96871 5.84654L6.85507 5.45473C6.84773 5.42935 6.82634 5.40952 6.79901 5.40268L6.37696 5.29719C6.29856 5.2776 6.29856 5.17434 6.37696 5.15475L6.79901 5.04926C6.82634 5.04242 6.84773 5.0226 6.85507 4.99721L6.96871 4.6054C6.98982 4.53263 7.10105 4.53263 7.12215 4.6054L7.2358 4.99721C7.24314 5.0226 7.2645 5.04242 7.29186 5.04926L7.7139 5.15475C7.79231 5.17434 7.79231 5.2776 7.7139 5.29719L7.29186 5.40268C7.2645 5.40952 7.24314 5.42935 7.2358 5.45473L7.12215 5.84654Z" fill="white"/>
<path d="M14.3182 14.0032L13.5909 14.6783M4.15777 5.0424L15.9624 15.0878C16.2555 15.3372 16.2654 15.7631 15.9843 16.024V16.024C15.7043 16.284 15.2496 16.2779 14.9805 16.0081C10.9047 11.9232 3.72842 4.70759 4.15777 5.0424Z" stroke="white"/>
</svg>
