<svg width="224" height="80" viewBox="0 0 224 80" fill="none" xmlns="http://www.w3.org/2000/svg">
<path d="M50 23.3334L60 23.3334C62.1887 23.3334 64.356 23.7645 66.3781 24.602C68.4002 25.4396 70.2375 26.6673 71.7852 28.2149C73.3328 29.7626 74.5605 31.5999 75.398 33.622C76.2356 35.6441 76.6667 37.8113 76.6667 40C76.6667 42.1887 76.2356 44.356 75.398 46.3781C74.5605 48.4002 73.3328 50.2375 71.7852 51.7852C70.2375 53.3328 68.4002 54.5605 66.3781 55.398C64.356 56.2356 62.1887 56.6667 60 56.6667H50M30 56.6667H20C17.8113 56.6667 15.6441 56.2356 13.622 55.398C11.5999 54.5605 9.76257 53.3328 8.21493 51.7852C5.08932 48.6595 3.33337 44.4203 3.33337 40C3.33337 35.5798 5.08932 31.3405 8.21493 28.2149C11.3405 25.0893 15.5798 23.3334 20 23.3334H30" stroke="#141414" stroke-width="2" stroke-linecap="round" stroke-linejoin="round"/>
<path d="M26.6666 40H53.3333" stroke="#141414" stroke-width="2" stroke-linecap="round" stroke-linejoin="round"/>
<path d="M122 23.3334L132 23.3334C134.189 23.3334 136.356 23.7645 138.378 24.602C140.4 25.4396 142.238 26.6673 143.785 28.2149C145.333 29.7626 146.56 31.5999 147.398 33.622C148.236 35.6441 148.667 37.8113 148.667 40C148.667 42.1887 148.236 44.356 147.398 46.3781C146.56 48.4002 145.333 50.2375 143.785 51.7852C142.238 53.3328 140.4 54.5605 138.378 55.398C136.356 56.2356 134.189 56.6667 132 56.6667H122M102 56.6667H92C89.8113 56.6667 87.6441 56.2356 85.622 55.398C83.5999 54.5605 81.7626 53.3328 80.2149 51.7852C77.0893 48.6595 75.3334 44.4203 75.3334 40C75.3334 35.5798 77.0893 31.3405 80.2149 28.2149C83.3405 25.0893 87.5798 23.3334 92 23.3334H102" stroke="#141414" stroke-width="2" stroke-linecap="round" stroke-linejoin="round"/>
<path d="M98.6666 40H125.333" stroke="#141414" stroke-width="2" stroke-linecap="round" stroke-linejoin="round"/>
<path d="M194 23.3334L204 23.3334C206.189 23.3334 208.356 23.7645 210.378 24.602C212.4 25.4396 214.238 26.6673 215.785 28.2149C217.333 29.7626 218.56 31.5999 219.398 33.622C220.236 35.6441 220.667 37.8113 220.667 40C220.667 42.1887 220.236 44.356 219.398 46.3781C218.56 48.4002 217.333 50.2375 215.785 51.7852C214.238 53.3328 212.4 54.5605 210.378 55.398C208.356 56.2356 206.189 56.6667 204 56.6667H194M174 56.6667H164C161.811 56.6667 159.644 56.2356 157.622 55.398C155.6 54.5605 153.763 53.3328 152.215 51.7852C149.089 48.6595 147.333 44.4203 147.333 40C147.333 35.5798 149.089 31.3405 152.215 28.2149C155.341 25.0893 159.58 23.3334 164 23.3334H174" stroke="#141414" stroke-width="2" stroke-linecap="round" stroke-linejoin="round"/>
<path d="M170.667 40H197.333" stroke="#141414" stroke-width="2" stroke-linecap="round" stroke-linejoin="round"/>
</svg>
