<svg width="80" height="80" viewBox="0 0 80 80" fill="none" xmlns="http://www.w3.org/2000/svg">
<path d="M50 23.3334L60 23.3334C62.1887 23.3334 64.356 23.7645 66.3781 24.602C68.4002 25.4396 70.2375 26.6673 71.7852 28.2149C73.3328 29.7626 74.5605 31.5999 75.398 33.622C76.2356 35.6441 76.6667 37.8113 76.6667 40C76.6667 42.1887 76.2356 44.356 75.398 46.3781C74.5605 48.4002 73.3328 50.2375 71.7852 51.7852C70.2375 53.3328 68.4002 54.5605 66.3781 55.398C64.356 56.2356 62.1887 56.6667 60 56.6667H50M30 56.6667H20C17.8113 56.6667 15.6441 56.2356 13.622 55.398C11.5999 54.5605 9.76257 53.3328 8.21493 51.7852C5.08932 48.6595 3.33337 44.4203 3.33337 40C3.33337 35.5798 5.08932 31.3405 8.21493 28.2149C11.3405 25.0893 15.5798 23.3334 20 23.3334H30" stroke="#141414" stroke-width="2" stroke-linecap="round" stroke-linejoin="round"/>
<path d="M26.6666 40H53.3333" stroke="#141414" stroke-width="2" stroke-linecap="round" stroke-linejoin="round"/>
</svg>
