<svg width="668" height="299" viewBox="0 0 668 299" fill="none" xmlns="http://www.w3.org/2000/svg">
<g opacity="0.5">
<path fill-rule="evenodd" clip-rule="evenodd" d="M43 192.108C-13.417 169.4 -91.4973 207.115 -122.5 165.198C-151.311 126.244 -160.612 44.6092 -156.682 0.195023C-152.913 -42.4049 -129.881 -80.1685 -105.252 -118.689C-73.6885 -168.054 -65.0909 -244.326 6.63529 -255.234C80.4193 -266.456 128.261 -196.084 189.698 -163.545C230.539 -141.915 270.367 -123.208 305.807 -96.787C349.903 -63.9116 421.468 -37.709 420.926 8.84409C420.385 55.3316 334.746 72.5761 303.366 112.714C264.745 162.117 286.756 241.729 218.553 267.706C152.499 292.865 108.273 218.379 43 192.108Z" fill="url(#paint0_linear_70_672)" fill-opacity="0.3"/>
<path fill-rule="evenodd" clip-rule="evenodd" d="M130 156.975C77.1864 142.346 13.321 143.549 -20.5 109.883C-51.931 78.5958 -50.7568 74.6479 -54.5752 35.6263C-58.2382 -1.8013 -44.3437 -36.7734 -29.1825 -72.5491C-9.75191 -118.397 -14.6996 -185.578 45.9618 -201.606C108.365 -218.094 161.481 -161.191 220.268 -138.461C259.346 -123.351 297.068 -110.693 332.225 -90.9206C375.971 -66.3182 442.541 -50.0253 449.657 -9.45126C456.763 31.067 385.024 53.8784 364.249 91.678C338.681 138.202 370.818 205.501 315.679 234.327C262.279 262.243 191.104 173.9 130 156.975Z" fill="url(#paint1_linear_70_672)" fill-opacity="0.4"/>
<path fill-rule="evenodd" clip-rule="evenodd" d="M167.5 93.0639C123.721 69.6206 11.8413 73.3034 -8.00012 35.88C-26.4388 1.10235 85.364 9.05234 95 -27.6575C104.243 -62.8673 80.9529 -62.5497 107 -92.69C140.382 -131.316 181.646 -89.3365 243 -92.69C306.114 -96.1401 300.736 -178.991 356.14 -165.456C417.702 -150.417 330.381 -66.3471 356.14 -41.4862C388.19 -10.5521 531.325 -42.0129 524.206 -3.24956C517.098 35.4605 443.239 42.9825 411.332 73.9319C372.062 112.023 379.01 180.15 318.434 196.348C259.769 212.034 218.149 120.188 167.5 93.0639Z" fill="url(#paint2_linear_70_672)" fill-opacity="0.6"/>
</g>
<defs>
<linearGradient id="paint0_linear_70_672" x1="396.928" y1="-77.6338" x2="140.688" y2="285.345" gradientUnits="userSpaceOnUse">
<stop stop-color="#9EE6F7" stop-opacity="0"/>
<stop offset="1" stop-color="#9EE6F7" stop-opacity="0.46"/>
</linearGradient>
<linearGradient id="paint1_linear_70_672" x1="414.67" y1="-82.5464" x2="238.044" y2="250.013" gradientUnits="userSpaceOnUse">
<stop stop-color="#9EE6F7" stop-opacity="0"/>
<stop offset="1" stop-color="#9EE6F7" stop-opacity="0.46"/>
</linearGradient>
<linearGradient id="paint2_linear_70_672" x1="516.586" y1="-77.2588" x2="255.452" y2="208.884" gradientUnits="userSpaceOnUse">
<stop stop-color="#005AE2"/>
<stop offset="1" stop-color="#73E6FF" stop-opacity="0.38"/>
</linearGradient>
</defs>
</svg>
