<svg width="579" height="299" viewBox="0 0 579 299" fill="none" xmlns="http://www.w3.org/2000/svg">
<g opacity="0.7">
<path fill-rule="evenodd" clip-rule="evenodd" d="M66.5 329.648C76.7662 282.37 156.045 188.031 198.905 152.427C238.736 119.34 259.063 106.675 316.5 94.9326C371.591 83.6696 457.248 99.0959 514 103.903C586.73 110.063 690.641 74.3525 727.879 121.456C766.186 169.912 692.853 226.712 671.799 280.751C657.803 316.673 647.171 350.924 625.353 384.597C598.203 426.495 588.469 485.616 529.435 500.451C470.484 515.265 420.688 460.404 359.683 451.358C284.599 440.224 191.141 481.798 136.002 442.109C82.6019 403.671 54.6224 384.347 66.5 329.648Z" fill="url(#paint0_linear_70_668)" fill-opacity="0.3"/>
<path fill-rule="evenodd" clip-rule="evenodd" d="M178.135 349.119C179.366 307.028 192.737 265.722 224.246 230.825C253.527 198.393 298.799 177.668 346.886 162.214C393.008 147.392 432.814 163.199 483.001 162.214C547.318 160.953 639.588 118.073 679.682 155.687C720.927 194.38 666.348 250.505 656.828 299.465C650.499 332.01 646.827 362.796 633.322 394.095C616.517 433.041 617.68 485.395 568.708 503.685C519.804 521.95 467.512 478.728 412.931 476.409C345.754 473.554 271.173 518.257 216.704 488.728C163.953 460.131 176.711 397.818 178.135 349.119Z" fill="url(#paint1_linear_70_668)" fill-opacity="0.4"/>
<path fill-rule="evenodd" clip-rule="evenodd" d="M277.126 342.229C292.454 303.639 318.715 268.061 359.543 241.811C397.485 217.417 446.23 206.831 495.792 201.638C543.329 196.657 588.843 204.353 635.464 212.9C695.211 223.856 780.641 216.076 804.937 258.322C829.93 301.78 760.666 343.262 735.375 386.624C718.564 415.448 704.797 443.151 681.786 469.474C653.153 502.228 636.573 550.734 585.238 558.376C533.973 566.009 500.319 516.292 450.76 503.869C389.764 488.579 305.903 515.757 265.621 478.259C226.612 441.944 259.391 386.876 277.126 342.229Z" fill="url(#paint2_linear_70_668)" fill-opacity="0.6"/>
</g>
<defs>
<linearGradient id="paint0_linear_70_668" x1="637.675" y1="444.148" x2="212.299" y2="187.426" gradientUnits="userSpaceOnUse">
<stop stop-color="#9EE6F7" stop-opacity="0"/>
<stop offset="1" stop-color="#9EE6F7" stop-opacity="0.46"/>
</linearGradient>
<linearGradient id="paint1_linear_70_668" x1="649.685" y1="455.075" x2="229.608" y2="290.592" gradientUnits="userSpaceOnUse">
<stop stop-color="#9EE6F7" stop-opacity="0"/>
<stop offset="1" stop-color="#9EE6F7" stop-opacity="0.46"/>
</linearGradient>
<linearGradient id="paint2_linear_70_668" x1="676.316" y1="528.8" x2="365.12" y2="272.69" gradientUnits="userSpaceOnUse">
<stop stop-color="#005AE2"/>
<stop offset="1" stop-color="#73E6FF" stop-opacity="0.38"/>
</linearGradient>
</defs>
</svg>
