<svg width="24" height="24" viewBox="0 0 24 24" fill="none" xmlns="http://www.w3.org/2000/svg">
<path d="M21.9707 1.4375C22.2832 1.4375 22.5664 1.55469 22.8203 1.78906C23.0742 2.02344 23.2012 2.29688 23.2012 2.60938V21.8281C23.2012 22.1406 23.0742 22.4141 22.8203 22.6484C22.5664 22.8828 22.2832 23 21.9707 23H16.4629V14.6797H19.2754L19.6855 11.3984H16.4629V9.28906C16.4629 8.23438 17.0098 7.70703 18.1035 7.70703H19.8027V4.83594C19.2168 4.71875 18.377 4.66016 17.2832 4.66016C16.0332 4.66016 15.0273 5.04102 14.2656 5.80273C13.5039 6.56445 13.123 7.62891 13.123 8.99609V11.3984H10.3105V14.6797H13.123V23H2.75195C2.43945 23 2.16602 22.8828 1.93164 22.6484C1.69727 22.4141 1.58008 22.1406 1.58008 21.8281V2.60938C1.58008 2.29688 1.69727 2.02344 1.93164 1.78906C2.16602 1.55469 2.43945 1.4375 2.75195 1.4375H21.9707Z" fill="#112232"/>
</svg>
