<svg width="508" height="541" viewBox="0 0 508 541" fill="none" xmlns="http://www.w3.org/2000/svg">
<g opacity="0.8">
<path fill-rule="evenodd" clip-rule="evenodd" d="M76.21 62.9583C123.75 71.9327 220.214 148.612 256.972 190.487C291.132 229.401 304.345 249.375 317.648 306.471C330.408 361.235 317.321 447.28 314.062 504.142C309.886 577.013 348.414 679.912 302.342 718.42C254.948 758.033 196.17 686.275 141.579 666.7C105.289 653.688 70.7602 643.994 36.5056 623.1C-6.11628 597.102 -65.4808 588.983 -81.9188 530.375C-98.3333 471.849 -44.8493 420.577 -37.468 359.348C-28.3839 283.988 -72.4886 191.698 -34.3162 135.498C2.65309 81.0708 21.2074 52.5753 76.21 62.9583Z" fill="url(#paint0_linear_1982_1198)" fill-opacity="0.3"/>
<path fill-rule="evenodd" clip-rule="evenodd" d="M59.7866 175.082C101.896 175.166 143.55 187.407 179.293 217.953C212.51 246.339 234.461 291.03 251.219 338.678C267.293 384.379 252.576 424.601 254.927 474.743C257.94 539.002 303.318 630.069 266.81 671.173C229.255 713.457 171.664 660.427 122.463 652.245C89.7578 646.804 58.8834 643.972 27.2274 631.325C-12.1615 615.587 -64.464 618.176 -84.0817 569.721C-103.672 521.333 -61.8907 467.883 -61.0592 413.259C-60.0364 346.028 -106.755 272.693 -78.7204 217.439C-51.5702 163.929 11.0669 174.985 59.7866 175.082Z" fill="url(#paint1_linear_1982_1198)" fill-opacity="0.4"/>
<path opacity="0.4" fill-rule="evenodd" clip-rule="evenodd" d="M69.3709 273.849C108.365 288.12 144.644 313.402 171.997 353.5C197.416 390.763 209.325 439.201 215.867 488.604C222.14 535.987 215.688 581.694 208.414 628.531C199.09 688.553 209.194 773.74 167.626 799.178C124.865 825.346 81.5112 757.237 37.4765 733.137C8.20465 717.117 -19.8626 704.11 -46.8031 681.825C-80.325 654.095 -129.264 638.843 -138.303 587.735C-147.329 536.697 -98.5468 501.701 -87.4788 451.822C-73.8564 390.432 -103.309 307.342 -66.9226 266.054C-31.6836 226.07 24.2571 257.336 69.3709 273.849Z" fill="url(#paint2_linear_1982_1198)" fill-opacity="0.6"/>
</g>
<defs>
<linearGradient id="paint0_linear_1982_1198" x1="-22.6874" y1="637.041" x2="222.351" y2="204.829" gradientUnits="userSpaceOnUse">
<stop stop-color="#9EE6F7" stop-opacity="0"/>
<stop offset="1" stop-color="#9EE6F7" stop-opacity="0.46"/>
</linearGradient>
<linearGradient id="paint1_linear_1982_1198" x1="-33.2836" y1="649.343" x2="119.695" y2="224.941" gradientUnits="userSpaceOnUse">
<stop stop-color="#9EE6F7" stop-opacity="0"/>
<stop offset="1" stop-color="#9EE6F7" stop-opacity="0.46"/>
</linearGradient>
<linearGradient id="paint2_linear_1982_1198" x1="-106.256" y1="677.973" x2="141.281" y2="359.916" gradientUnits="userSpaceOnUse">
<stop stop-color="#005AE2"/>
<stop offset="1" stop-color="#73E6FF" stop-opacity="0.38"/>
</linearGradient>
</defs>
</svg>
