<svg width="507" height="561" viewBox="0 0 507 561" fill="none" xmlns="http://www.w3.org/2000/svg">
<g opacity="0.8">
<path fill-rule="evenodd" clip-rule="evenodd" d="M75.2099 -13.0422C122.75 -4.0678 219.214 72.6111 255.972 114.486C290.132 153.401 303.345 173.375 316.648 230.471C329.408 285.234 316.321 371.28 313.062 428.142C308.886 501.013 347.413 603.912 301.342 642.419C253.948 682.032 195.17 610.274 140.579 590.7C104.288 577.688 69.7601 567.993 35.5055 547.1C-7.1164 521.102 -66.481 512.982 -82.9189 454.375C-99.3334 395.849 -45.8495 344.576 -38.4681 283.348C-29.384 207.988 -73.4887 115.697 -35.3163 59.4977C1.65298 5.07029 20.2073 -23.4252 75.2099 -13.0422Z" fill="url(#paint0_linear_84_177)" fill-opacity="0.3"/>
<path fill-rule="evenodd" clip-rule="evenodd" d="M58.7866 99.0814C100.896 99.1652 142.55 111.406 178.293 141.952C211.51 170.339 233.461 215.03 250.219 262.677C266.293 308.379 251.576 348.601 253.927 398.742C256.94 463.001 302.318 554.069 265.81 595.173C228.255 637.457 170.664 584.427 121.463 576.244C88.7578 570.804 57.8834 567.972 26.2274 555.324C-13.1615 539.587 -65.464 542.175 -85.0817 493.72C-104.672 445.332 -62.8907 391.882 -62.0592 337.258C-61.0364 270.028 -107.755 196.692 -79.7204 141.439C-52.5702 87.9288 10.0669 98.9845 58.7866 99.0814Z" fill="url(#paint1_linear_84_177)" fill-opacity="0.4"/>
<path opacity="0.4" fill-rule="evenodd" clip-rule="evenodd" d="M68.3709 197.848C107.365 212.119 143.644 237.401 170.997 277.499C196.416 314.762 208.325 363.201 214.867 412.603C221.14 459.987 214.688 505.694 207.414 552.53C198.09 612.553 208.194 697.739 166.626 723.177C123.865 749.345 80.5112 681.237 36.4764 657.136C7.20466 641.117 -20.8625 628.11 -47.8031 605.824C-81.325 578.094 -130.264 562.842 -139.303 511.734C-148.329 460.696 -99.5468 425.7 -88.4788 375.821C-74.8564 314.431 -104.309 231.341 -67.9226 190.054C-32.6836 150.069 23.2571 181.336 68.3709 197.848Z" fill="url(#paint2_linear_84_177)" fill-opacity="0.6"/>
</g>
<defs>
<linearGradient id="paint0_linear_84_177" x1="-23.6875" y1="561.04" x2="221.351" y2="128.828" gradientUnits="userSpaceOnUse">
<stop stop-color="#9EE6F7" stop-opacity="0"/>
<stop offset="1" stop-color="#9EE6F7" stop-opacity="0.46"/>
</linearGradient>
<linearGradient id="paint1_linear_84_177" x1="-34.2836" y1="573.343" x2="118.695" y2="148.941" gradientUnits="userSpaceOnUse">
<stop stop-color="#9EE6F7" stop-opacity="0"/>
<stop offset="1" stop-color="#9EE6F7" stop-opacity="0.46"/>
</linearGradient>
<linearGradient id="paint2_linear_84_177" x1="-107.256" y1="601.973" x2="140.281" y2="283.916" gradientUnits="userSpaceOnUse">
<stop stop-color="#005AE2"/>
<stop offset="1" stop-color="#73E6FF" stop-opacity="0.38"/>
</linearGradient>
</defs>
</svg>
