<svg width="24" height="24" viewBox="0 0 24 24" fill="none" xmlns="http://www.w3.org/2000/svg">
<path d="M20.7004 1.4375C21.1301 1.4375 21.511 1.58398 21.843 1.87695C22.175 2.16992 22.3411 2.53125 22.3411 2.96094V21.4766C22.3411 21.9062 22.175 22.2676 21.843 22.5605C21.511 22.8535 21.1301 23 20.7004 23H2.302C1.87231 23 1.50122 22.8535 1.18872 22.5605C0.876221 22.2676 0.719971 21.9062 0.719971 21.4766V2.96094C0.719971 2.53125 0.876221 2.16992 1.18872 1.87695C1.50122 1.58398 1.87231 1.4375 2.302 1.4375H20.7004ZM7.10669 19.8359V9.52344H3.94263V19.8359H7.10669ZM5.52466 8.11719C6.03247 8.11719 6.47192 7.93164 6.84302 7.56055C7.21411 7.18945 7.39966 6.75 7.39966 6.24219C7.39966 5.73438 7.21411 5.29492 6.84302 4.92383C6.47192 4.55273 6.03247 4.36719 5.52466 4.36719C5.01685 4.36719 4.57739 4.55273 4.2063 4.92383C3.83521 5.29492 3.64966 5.73438 3.64966 6.24219C3.64966 6.78906 3.82544 7.23828 4.177 7.58984C4.52856 7.94141 4.97778 8.11719 5.52466 8.11719ZM19.1184 19.8359V14.1523C19.1184 12.5898 18.8547 11.3887 18.3274 10.5488C17.8 9.70898 16.7942 9.28906 15.3098 9.28906C13.8254 9.28906 12.8098 9.83594 12.2629 10.9297H12.2043V9.52344H9.15747V19.8359H12.3215V14.7383C12.3215 12.9805 12.9661 12.1016 14.2551 12.1016C14.7629 12.1016 15.1438 12.2676 15.3977 12.5996C15.6516 12.9316 15.7981 13.2441 15.8372 13.5371C15.8762 13.8301 15.8958 14.25 15.8958 14.7969V19.8359H19.1184Z" fill="#112232"/>
</svg>
