<svg width="374" height="439" viewBox="0 0 374 439" fill="none" xmlns="http://www.w3.org/2000/svg">
<g opacity="0.7">
<path fill-rule="evenodd" clip-rule="evenodd" d="M74.416 555.548C59.9172 509.392 82.0603 388.171 101.659 336.012C119.872 287.54 131.258 266.47 175.338 227.82C217.618 190.749 299.67 161.723 351.352 137.789C417.585 107.116 490.166 24.6259 545.847 47.1013C603.125 70.2213 567.554 155.888 576.029 213.26C581.663 251.398 589.393 286.419 587.117 326.478C584.284 376.323 605.112 432.504 561.176 474.631C517.302 516.7 446.87 493.706 389.393 516.063C318.651 543.581 258.055 625.988 190.497 618.82C125.068 611.878 91.1909 608.95 74.416 555.548Z" fill="url(#paint0_linear_1982_1137)" fill-opacity="0.3"/>
<path fill-rule="evenodd" clip-rule="evenodd" d="M181.04 517.17C161.261 479.994 152.418 437.489 162.504 391.566C171.878 348.889 200.941 308.461 235.06 271.219C267.785 235.497 310.195 229.513 353.306 203.799C408.554 170.847 467.471 87.8939 520.932 100.71C575.928 113.895 556.314 189.685 572.293 236.932C582.915 268.34 594.974 296.903 598.745 330.782C603.436 372.939 630.378 417.843 596.895 457.988C563.458 498.078 496.623 486.431 448.059 511.451C388.287 542.245 345.639 618.02 283.695 619.347C223.705 620.632 203.924 560.181 181.04 517.17Z" fill="url(#paint1_linear_1982_1137)" fill-opacity="0.4"/>
<path opacity="0.5" fill-rule="evenodd" clip-rule="evenodd" d="M263.622 462.153C257.824 421.036 263.015 377.122 285.481 334.096C306.359 294.111 343.461 260.771 383.945 231.711C422.774 203.839 466.124 187.98 510.858 172.314C568.187 152.238 638.548 103.165 680.58 127.831C723.817 153.204 684.193 223.548 683.7 273.744C683.372 307.111 685.134 337.995 678.182 372.26C669.532 414.896 679.154 465.246 638.344 497.312C597.59 529.335 543.729 502.814 494.523 516.569C433.961 533.499 374.571 598.646 321.005 586.023C269.13 573.797 270.329 509.723 263.622 462.153Z" fill="url(#paint2_linear_1982_1137)" fill-opacity="0.6"/>
</g>
<defs>
<linearGradient id="paint0_linear_1982_1137" x1="627.318" y1="372.107" x2="130.63" y2="359.782" gradientUnits="userSpaceOnUse">
<stop stop-color="#9EE6F7" stop-opacity="0"/>
<stop offset="1" stop-color="#9EE6F7" stop-opacity="0.46"/>
</linearGradient>
<linearGradient id="paint1_linear_1982_1137" x1="643.164" y1="375.651" x2="196.766" y2="440.831" gradientUnits="userSpaceOnUse">
<stop stop-color="#9EE6F7" stop-opacity="0"/>
<stop offset="1" stop-color="#9EE6F7" stop-opacity="0.46"/>
</linearGradient>
<linearGradient id="paint2_linear_1982_1137" x1="702.815" y1="426.507" x2="305.621" y2="358.159" gradientUnits="userSpaceOnUse">
<stop stop-color="#005AE2"/>
<stop offset="1" stop-color="#73E6FF" stop-opacity="0.38"/>
</linearGradient>
</defs>
</svg>
