<svg width="14" height="19" viewBox="0 0 14 19" fill="none" xmlns="http://www.w3.org/2000/svg">
<path d="M11.2952 10.6619C11.294 9.50838 11.8377 8.42224 12.7613 7.733C12.8426 7.66917 12.8942 7.57481 12.9042 7.47188C12.9142 7.36894 12.8817 7.26639 12.8142 7.18808C12.1176 6.41384 11.1408 5.95061 10.1012 5.90148C8.82406 5.78039 7.60736 6.65831 6.95745 6.65831C6.30753 6.65831 5.24953 5.90148 4.19153 5.90148C2.7668 5.94608 1.47125 6.74008 0.783259 7.99032C-0.667713 10.5181 0.412959 14.2266 1.78836 16.3003C2.47606 17.2993 3.29979 18.4269 4.38802 18.3891C5.47625 18.3512 5.82387 17.7155 7.08592 17.7155C8.34796 17.7155 8.70315 18.3891 9.80649 18.3664C10.9098 18.3437 11.6731 17.3447 12.3684 16.3457C12.795 15.7172 13.1427 15.0385 13.4037 14.3249C13.4677 14.1492 13.3938 13.953 13.2299 13.8633C12.0388 13.2416 11.2927 12.0071 11.2952 10.6619Z" fill="white"/>
<path d="M8.38723 3.78685C8.91009 3.08843 9.21635 2.2182 9.2598 1.30742C9.26424 1.18414 9.21788 1.06543 9.13409 0.985529C9.0503 0.905626 8.9384 0.873416 8.83067 0.898192C8.05254 1.0987 7.34981 1.56725 6.8209 2.23821C6.29551 2.90881 5.98136 3.7547 5.92687 4.64543C5.9243 4.76055 5.96595 4.87136 6.04121 4.94967C6.11648 5.02797 6.21811 5.06621 6.32024 5.05466C7.12773 4.94184 7.86672 4.48858 8.38723 3.78685Z" fill="white"/>
</svg>
