<svg width="20" height="19" viewBox="0 0 20 19" fill="none" xmlns="http://www.w3.org/2000/svg">
<path d="M19.5556 9.7111C19.5556 9.07776 19.4444 8.33887 19.3333 7.8111H10V11.5055H15.3333C15.1111 12.6667 14.4444 13.6167 13.3333 14.3555V16.7833H16.6667C18.5556 15.0944 19.5556 12.5611 19.5556 9.7111Z" fill="#4285F4"/>
<path d="M10.0002 19C12.6669 19 15.0002 18.1556 16.6669 16.6778L13.3335 14.3556C12.4447 14.8834 11.3335 15.3056 10.0002 15.3056C7.44466 15.3056 5.22244 13.6167 4.44466 11.4H1.11133V13.7222C2.66688 16.8889 6.11133 19 10.0002 19Z" fill="#34A853"/>
<path d="M4.44444 11.2944C4.22222 10.7667 4.11111 10.1333 4.11111 9.49999C4.11111 8.86666 4.22222 8.23333 4.44444 7.70555V5.27777H1.11111C0.444444 6.54444 0 8.02222 0 9.49999C0 10.9778 0.333333 12.4555 1.11111 13.7222L4.44444 11.2944Z" fill="#FBBC05"/>
<path d="M10.0002 3.8C11.4447 3.8 12.778 4.32778 13.778 5.17222L16.6669 2.42778C15.0002 0.95 12.6669 0 10.0002 0C6.11133 0 2.66688 2.11111 1.11133 5.27778L4.44466 7.70556C5.22244 5.48889 7.44466 3.8 10.0002 3.8Z" fill="#EA4335"/>
</svg>
